<svg xmlns="http://www.w3.org/2000/svg" width="1920" height="1080"><path d="M1026,584L948,747L1117,622Z" fill="#64bb6d" stroke="#64bb6d" stroke-width="1.51"/><path d="M1119,894L1240,647L1117,622Z" fill="#53b365" stroke="#53b365" stroke-width="1.51"/><path d="M1228,374L943,406L1026,584Z" fill="#75c478" stroke="#75c478" stroke-width="1.51"/><path d="M948,747L1119,894L1117,622Z" fill="#57b466" stroke="#57b466" stroke-width="1.51"/><path d="M1119,894L1294,686L1240,647Z" fill="#4caf61" stroke="#4caf61" stroke-width="1.51"/><path d="M1026,584L759,659L948,747Z" fill="#6bbf72" stroke="#6bbf72" stroke-width="1.51"/><path d="M948,747L865,919L1119,894Z" fill="#56b165" stroke="#56b165" stroke-width="1.51"/><path d="M759,659L865,919L948,747Z" fill="#63bb6f" stroke="#63bb6f" stroke-width="1.51"/><path d="M1026,584L943,406L759,659Z" fill="#77c578" stroke="#77c578" stroke-width="1.51"/><path d="M1228,374L1026,584L1117,622Z" fill="#6abe71" stroke="#6abe71" stroke-width="1.51"/><path d="M1228,374L1117,622L1240,647Z" fill="#62bb6c" stroke="#62bb6c" stroke-width="1.51"/><path d="M1353,378L1228,374L1240,647Z" fill="#66bc70" stroke="#66bc70" stroke-width="1.51"/><path d="M759,659L720,1030L865,919Z" fill="#63b66e" stroke="#63b66e" stroke-width="1.51"/><path d="M943,406L672,598L759,659Z" fill="#7ec97e" stroke="#7ec97e" stroke-width="1.51"/><path d="M1119,894L1421,887L1294,686Z" fill="#40a85b" stroke="#40a85b" stroke-width="1.51"/><path d="M1294,686L1456,570L1240,647Z" fill="#50b163" stroke="#50b163" stroke-width="1.51"/><path d="M1346,1165L1421,887L1119,894Z" fill="#349c52" stroke="#349c52" stroke-width="1.51"/><path d="M1549,746L1456,570L1294,686Z" fill="#48aa5d" stroke="#48aa5d" stroke-width="1.51"/><path d="M1456,570L1353,378L1240,647Z" fill="#5bb568" stroke="#5bb568" stroke-width="1.51"/><path d="M865,919L1056,1180L1119,894Z" fill="#4ba65c" stroke="#4ba65c" stroke-width="1.51"/><path d="M473,865L720,1030L759,659Z" fill="#6dbb76" stroke="#6dbb76" stroke-width="1.51"/><path d="M720,1030L752,1064L865,919Z" fill="#5cad67" stroke="#5cad67" stroke-width="1.51"/><path d="M752,1064L1056,1180L865,919Z" fill="#52a65e" stroke="#52a65e" stroke-width="1.51"/><path d="M1353,378L1198,218L1228,374Z" fill="#75c37c" stroke="#75c37c" stroke-width="1.51"/><path d="M1228,374L1198,218L943,406Z" fill="#7dc880" stroke="#7dc880" stroke-width="1.51"/><path d="M943,406L689,254L672,598Z" fill="#8dd08a" stroke="#8dd08a" stroke-width="1.51"/><path d="M1421,887L1549,746L1294,686Z" fill="#3ca558" stroke="#3ca558" stroke-width="1.51"/><path d="M1056,1180L1346,1165L1119,894Z" fill="#3a9a51" stroke="#3a9a51" stroke-width="1.51"/><path d="M1421,887L1580,888L1549,746Z" fill="#349c51" stroke="#349c51" stroke-width="1.51"/><path d="M869,1313L1125,1237L1056,1180Z" fill="#3f954e" stroke="#3f954e" stroke-width="1.51"/><path d="M897,135L689,254L943,406Z" fill="#96d492" stroke="#96d492" stroke-width="1.51"/><path d="M1125,1237L1346,1165L1056,1180Z" fill="#34934b" stroke="#34934b" stroke-width="1.51"/><path d="M1198,218L897,135L943,406Z" fill="#8ccf8b" stroke="#8ccf8b" stroke-width="1.51"/><path d="M1493,1234L1580,888L1421,887Z" fill="#2a9149" stroke="#2a9149" stroke-width="1.51"/><path d="M464,843L473,865L759,659Z" fill="#77c37d" stroke="#77c37d" stroke-width="1.51"/><path d="M489,426L494,473L672,598Z" fill="#93d28f" stroke="#93d28f" stroke-width="1.51"/><path d="M464,843L759,659L672,598Z" fill="#7bc67f" stroke="#7bc67f" stroke-width="1.51"/><path d="M828,1339L869,1313L752,1064Z" fill="#4e9c58" stroke="#4e9c58" stroke-width="1.51"/><path d="M358,659L464,843L672,598Z" fill="#83c987" stroke="#83c987" stroke-width="1.51"/><path d="M494,473L358,659L672,598Z" fill="#8ed08d" stroke="#8ed08d" stroke-width="1.51"/><path d="M689,254L489,426L672,598Z" fill="#96d492" stroke="#96d492" stroke-width="1.51"/><path d="M1353,378L1457,135L1198,218Z" fill="#78c27f" stroke="#78c27f" stroke-width="1.51"/><path d="M1198,218L1042,-8L897,135Z" fill="#95d294" stroke="#95d294" stroke-width="1.51"/><path d="M1456,570L1512,273L1353,378Z" fill="#64b66f" stroke="#64b66f" stroke-width="1.51"/><path d="M1678,469L1512,273L1456,570Z" fill="#5db068" stroke="#5db068" stroke-width="1.51"/><path d="M1678,469L1456,570L1718,517Z" fill="#51a95f" stroke="#51a95f" stroke-width="1.51"/><path d="M689,254L368,249L489,426Z" fill="#a7dca1" stroke="#a7dca1" stroke-width="1.51"/><path d="M897,135L701,140L689,254Z" fill="#a3d99e" stroke="#a3d99e" stroke-width="1.51"/><path d="M752,1064L869,1313L1056,1180Z" fill="#4b9d56" stroke="#4b9d56" stroke-width="1.51"/><path d="M828,1339L752,1064L583,1201Z" fill="#57a25e" stroke="#57a25e" stroke-width="1.51"/><path d="M358,561L358,659L494,473Z" fill="#95d393" stroke="#95d393" stroke-width="1.51"/><path d="M215,908L397,1055L473,865Z" fill="#7bbc80" stroke="#7bbc80" stroke-width="1.51"/><path d="M1718,517L1456,570L1549,746Z" fill="#49a65b" stroke="#49a65b" stroke-width="1.51"/><path d="M869,1313L1192,1366L1125,1237Z" fill="#398d49" stroke="#398d49" stroke-width="1.51"/><path d="M1125,1237L1192,1366L1346,1165Z" fill="#2d8d46" stroke="#2d8d46" stroke-width="1.51"/><path d="M583,1201L752,1064L720,1030Z" fill="#5ea966" stroke="#5ea966" stroke-width="1.51"/><path d="M397,1055L583,1201L720,1030Z" fill="#66ad6c" stroke="#66ad6c" stroke-width="1.51"/><path d="M397,1055L720,1030L473,865Z" fill="#6eb575" stroke="#6eb575" stroke-width="1.51"/><path d="M368,249L358,561L489,426Z" fill="#a4da9e" stroke="#a4da9e" stroke-width="1.51"/><path d="M489,426L358,561L494,473Z" fill="#9ad596" stroke="#9ad596" stroke-width="1.51"/><path d="M828,1339L1192,1366L869,1313Z" fill="#408e4c" stroke="#408e4c" stroke-width="1.51"/><path d="M1346,1165L1493,1234L1421,887Z" fill="#288f47" stroke="#288f47" stroke-width="1.51"/><path d="M1512,273L1457,135L1353,378Z" fill="#72bc7a" stroke="#72bc7a" stroke-width="1.51"/><path d="M1515,25L1457,135L1512,273Z" fill="#7bbe81" stroke="#7bbe81" stroke-width="1.51"/><path d="M1221,-76L1042,-8L1198,218Z" fill="#94d195" stroke="#94d195" stroke-width="1.51"/><path d="M628,3L639,96L701,140Z" fill="#b2e0ab" stroke="#b2e0ab" stroke-width="1.51"/><path d="M1663,-34L1515,25L1782,36Z" fill="#7eba84" stroke="#7eba84" stroke-width="1.51"/><path d="M1866,655L1718,517L1549,746Z" fill="#419e55" stroke="#419e55" stroke-width="1.51"/><path d="M1382,1428L1493,1234L1346,1165Z" fill="#20823f" stroke="#20823f" stroke-width="1.51"/><path d="M1580,888L1866,655L1549,746Z" fill="#329a50" stroke="#329a50" stroke-width="1.51"/><path d="M701,140L639,96L689,254Z" fill="#aadda3" stroke="#aadda3" stroke-width="1.51"/><path d="M628,3L701,140L897,135Z" fill="#abdda5" stroke="#abdda5" stroke-width="1.51"/><path d="M215,908L473,865L464,843Z" fill="#7dc083" stroke="#7dc083" stroke-width="1.51"/><path d="M653,-156L628,3L779,-224Z" fill="#bde4b7" stroke="#bde4b7" stroke-width="1.51"/><path d="M1457,135L1221,-76L1198,218Z" fill="#87ca8c" stroke="#87ca8c" stroke-width="1.51"/><path d="M1493,1234L1759,1004L1580,888Z" fill="#228944" stroke="#228944" stroke-width="1.51"/><path d="M639,96L368,249L689,254Z" fill="#aedea6" stroke="#aedea6" stroke-width="1.51"/><path d="M628,3L897,135L779,-224Z" fill="#b2dfac" stroke="#b2dfac" stroke-width="1.51"/><path d="M358,65L368,249L639,96Z" fill="#b9e3b1" stroke="#b9e3b1" stroke-width="1.51"/><path d="M397,1055L478,1283L583,1201Z" fill="#67a96c" stroke="#67a96c" stroke-width="1.51"/><path d="M583,1201L478,1283L828,1339Z" fill="#5a9f5f" stroke="#5a9f5f" stroke-width="1.51"/><path d="M1192,1366L1382,1428L1346,1165Z" fill="#238340" stroke="#238340" stroke-width="1.51"/><path d="M1493,1234L1882,1222L1759,1004Z" fill="#167e3a" stroke="#167e3a" stroke-width="1.51"/><path d="M828,1339L1382,1428L1192,1366Z" fill="#318444" stroke="#318444" stroke-width="1.51"/><path d="M314,1426L1382,1428L828,1339Z" fill="#478c4f" stroke="#478c4f" stroke-width="1.51"/><path d="M1457,135L1515,25L1221,-76Z" fill="#87c68d" stroke="#87c68d" stroke-width="1.51"/><path d="M1831,362L1512,273L1678,469Z" fill="#60ad69" stroke="#60ad69" stroke-width="1.51"/><path d="M1718,517L1831,362L1678,469Z" fill="#55a660" stroke="#55a660" stroke-width="1.51"/><path d="M1759,1004L1866,655L1580,888Z" fill="#2a9149" stroke="#2a9149" stroke-width="1.51"/><path d="M358,659L215,908L464,843Z" fill="#83c789" stroke="#83c789" stroke-width="1.51"/><path d="M397,1055L319,1159L478,1283Z" fill="#6dac72" stroke="#6dac72" stroke-width="1.51"/><path d="M170,814L215,908L358,659Z" fill="#89c98e" stroke="#89c98e" stroke-width="1.51"/><path d="M170,814L358,659L40,590Z" fill="#95d197" stroke="#95d197" stroke-width="1.51"/><path d="M215,908L319,1159L397,1055Z" fill="#78b77d" stroke="#78b77d" stroke-width="1.51"/><path d="M1866,655L1831,362L1718,517Z" fill="#4ca059" stroke="#4ca059" stroke-width="1.51"/><path d="M177,1376L314,1426L319,1159Z" fill="#6da270" stroke="#6da270" stroke-width="1.51"/><path d="M40,590L358,659L358,561Z" fill="#9ad498" stroke="#9ad498" stroke-width="1.51"/><path d="M779,-224L897,135L1042,-8Z" fill="#a9dba5" stroke="#a9dba5" stroke-width="1.51"/><path d="M1515,25L1321,-158L1221,-76Z" fill="#90cb95" stroke="#90cb95" stroke-width="1.51"/><path d="M53,419L40,590L358,561Z" fill="#a6daa3" stroke="#a6daa3" stroke-width="1.51"/><path d="M628,3L358,65L639,96Z" fill="#bae4b3" stroke="#bae4b3" stroke-width="1.51"/><path d="M415,-223L358,65L628,3Z" fill="#c5e8be" stroke="#c5e8be" stroke-width="1.51"/><path d="M779,-224L1042,-8L1040,-265Z" fill="#afddab" stroke="#afddab" stroke-width="1.51"/><path d="M1866,655L1969,643L1831,362Z" fill="#449b53" stroke="#449b53" stroke-width="1.51"/><path d="M1999,972L1969,643L1866,655Z" fill="#298d46" stroke="#298d46" stroke-width="1.51"/><path d="M1040,-265L1042,-8L1221,-76Z" fill="#a2d7a2" stroke="#a2d7a2" stroke-width="1.51"/><path d="M1176,-285L1040,-265L1221,-76Z" fill="#a4d7a5" stroke="#a4d7a5" stroke-width="1.51"/><path d="M1515,25L1572,-315L1321,-158Z" fill="#90c896" stroke="#90c896" stroke-width="1.51"/><path d="M1321,-158L1176,-285L1221,-76Z" fill="#9cd2a0" stroke="#9cd2a0" stroke-width="1.51"/><path d="M1782,36L1515,25L1512,273Z" fill="#79ba7f" stroke="#79ba7f" stroke-width="1.51"/><path d="M1706,-41L1663,-34L1782,36Z" fill="#7eb883" stroke="#7eb883" stroke-width="1.51"/><path d="M1382,1428L1654,1453L1493,1234Z" fill="#197537" stroke="#197537" stroke-width="1.51"/><path d="M1759,1004L1999,972L1866,655Z" fill="#228942" stroke="#228942" stroke-width="1.51"/><path d="M1366,-380L1176,-285L1321,-158Z" fill="#9ed3a2" stroke="#9ed3a2" stroke-width="1.51"/><path d="M1572,-315L1366,-380L1321,-158Z" fill="#98cc9d" stroke="#98cc9d" stroke-width="1.51"/><path d="M1782,36L1512,273L1831,362Z" fill="#6cb172" stroke="#6cb172" stroke-width="1.51"/><path d="M1936,247L1782,36L1831,362Z" fill="#68ab6e" stroke="#68ab6e" stroke-width="1.51"/><path d="M1654,1453L1882,1222L1493,1234Z" fill="#117434" stroke="#117434" stroke-width="1.51"/><path d="M53,419L358,561L368,249Z" fill="#acdda7" stroke="#acdda7" stroke-width="1.51"/><path d="M177,1376L319,1159L66,1214Z" fill="#74ab77" stroke="#74ab77" stroke-width="1.51"/><path d="M358,65L152,215L368,249Z" fill="#bee6b7" stroke="#bee6b7" stroke-width="1.51"/><path d="M253,-47L152,215L358,65Z" fill="#c8eac1" stroke="#c8eac1" stroke-width="1.51"/><path d="M1969,643L1936,247L1831,362Z" fill="#52a05b" stroke="#52a05b" stroke-width="1.51"/><path d="M1882,1222L1999,972L1759,1004Z" fill="#147c38" stroke="#147c38" stroke-width="1.51"/><path d="M1969,643L2079,652L1936,247Z" fill="#459751" stroke="#459751" stroke-width="1.51"/><path d="M152,215L53,419L368,249Z" fill="#bae3b3" stroke="#bae3b3" stroke-width="1.51"/><path d="M53,419L13,576L40,590Z" fill="#abdca7" stroke="#abdca7" stroke-width="1.51"/><path d="M40,590L-32,658L170,814Z" fill="#9bd39d" stroke="#9bd39d" stroke-width="1.51"/><path d="M319,1159L314,1426L478,1283Z" fill="#69a36c" stroke="#69a36c" stroke-width="1.51"/><path d="M478,1283L314,1426L828,1339Z" fill="#5d9961" stroke="#5d9961" stroke-width="1.51"/><path d="M1382,1428L314,1426L1654,1453Z" fill="#317f42" stroke="#317f42" stroke-width="1.51"/><path d="M66,1214L215,908L-64,1051Z" fill="#82ba87" stroke="#82ba87" stroke-width="1.51"/><path d="M1366,-380L560,-236L1040,-265Z" fill="#b1deaf" stroke="#b1deaf" stroke-width="1.51"/><path d="M1040,-265L560,-236L779,-224Z" fill="#bce3b7" stroke="#bce3b7" stroke-width="1.51"/><path d="M779,-224L560,-236L653,-156Z" fill="#c3e6bd" stroke="#c3e6bd" stroke-width="1.51"/><path d="M653,-156L560,-236L628,3Z" fill="#c2e7bc" stroke="#c2e7bc" stroke-width="1.51"/><path d="M1999,972L2079,652L1969,643Z" fill="#278944" stroke="#278944" stroke-width="1.51"/><path d="M13,576L-32,658L40,590Z" fill="#a5d8a4" stroke="#a5d8a4" stroke-width="1.51"/><path d="M-133,384L-32,658L13,576Z" fill="#aeddaa" stroke="#aeddaa" stroke-width="1.51"/><path d="M415,-223L253,-47L358,65Z" fill="#cdebc7" stroke="#cdebc7" stroke-width="1.51"/><path d="M152,215L-133,384L53,419Z" fill="#bde4b7" stroke="#bde4b7" stroke-width="1.51"/><path d="M2288,306L2157,107L1936,247Z" fill="#5f9a63" stroke="#5f9a63" stroke-width="1.51"/><path d="M1999,972L2125,681L2079,652Z" fill="#258541" stroke="#258541" stroke-width="1.51"/><path d="M66,1214L319,1159L215,908Z" fill="#7bb57f" stroke="#7bb57f" stroke-width="1.51"/><path d="M-64,1051L215,908L170,814Z" fill="#88c28d" stroke="#88c28d" stroke-width="1.51"/><path d="M560,-236L415,-223L628,3Z" fill="#c8e9c2" stroke="#c8e9c2" stroke-width="1.51"/><path d="M1999,972L2287,1009L2125,681Z" fill="#1c7939" stroke="#1c7939" stroke-width="1.51"/><path d="M1882,1222L2036,1174L1999,972Z" fill="#0a7432" stroke="#0a7432" stroke-width="1.51"/><path d="M1971,1386L2036,1174L1882,1222Z" fill="#006b2b" stroke="#006b2b" stroke-width="1.51"/><path d="M1915,-319L1727,-352L1706,-41Z" fill="#88b98d" stroke="#88b98d" stroke-width="1.51"/><path d="M1936,247L1977,88L1782,36Z" fill="#6eab72" stroke="#6eab72" stroke-width="1.51"/><path d="M2157,107L1977,88L1936,247Z" fill="#68a36c" stroke="#68a36c" stroke-width="1.51"/><path d="M1176,-285L1366,-380L1040,-265Z" fill="#a5d7a8" stroke="#a5d7a8" stroke-width="1.51"/><path d="M560,-236L164,-277L415,-223Z" fill="#d5efcf" stroke="#d5efcf" stroke-width="1.51"/><path d="M1572,-315L1515,25L1663,-34Z" fill="#89c18e" stroke="#89c18e" stroke-width="1.51"/><path d="M1572,-315L1663,-34L1706,-41Z" fill="#88bf8d" stroke="#88bf8d" stroke-width="1.51"/><path d="M1654,1453L1875,1445L1882,1222Z" fill="#09682d" stroke="#09682d" stroke-width="1.51"/><path d="M1727,-352L1572,-315L1706,-41Z" fill="#8cbf92" stroke="#8cbf92" stroke-width="1.51"/><path d="M-32,658L-64,1051L170,814Z" fill="#91ca96" stroke="#91ca96" stroke-width="1.51"/><path d="M66,1214L-144,1278L177,1376Z" fill="#79a97c" stroke="#79a97c" stroke-width="1.51"/><path d="M1875,1445L1971,1386L1882,1222Z" fill="#03652a" stroke="#03652a" stroke-width="1.51"/><path d="M-64,1051L-67,1103L66,1214Z" fill="#84b787" stroke="#84b787" stroke-width="1.51"/><path d="M164,-277L74,-31L253,-47Z" fill="#d9f0d3" stroke="#d9f0d3" stroke-width="1.51"/><path d="M253,-47L74,-31L152,215Z" fill="#cfecc8" stroke="#cfecc8" stroke-width="1.51"/><path d="M53,419L-133,384L13,576Z" fill="#b4e0af" stroke="#b4e0af" stroke-width="1.51"/><path d="M-32,658L-245,723L-64,1051Z" fill="#97ce9d" stroke="#97ce9d" stroke-width="1.51"/><path d="M-318,1089L-144,1278L-67,1103Z" fill="#86b78b" stroke="#86b78b" stroke-width="1.51"/><path d="M-40,45L-133,384L152,215Z" fill="#c9eac3" stroke="#c9eac3" stroke-width="1.51"/><path d="M1982,-141L1706,-41L1782,36Z" fill="#7db481" stroke="#7db481" stroke-width="1.51"/><path d="M1572,-315L1727,-352L1366,-380Z" fill="#95c79b" stroke="#95c79b" stroke-width="1.51"/><path d="M74,-31L-40,45L152,215Z" fill="#d1edca" stroke="#d1edca" stroke-width="1.51"/><path d="M1977,88L1982,-141L1782,36Z" fill="#77ae7a" stroke="#77ae7a" stroke-width="1.51"/><path d="M2157,107L1982,-141L1977,88Z" fill="#71a674" stroke="#71a674" stroke-width="1.51"/><path d="M2295,496L1936,247L2079,652Z" fill="#489252" stroke="#489252" stroke-width="1.51"/><path d="M2125,681L2295,496L2079,652Z" fill="#388746" stroke="#388746" stroke-width="1.51"/><path d="M2414,567L2295,496L2125,681Z" fill="#388145" stroke="#388145" stroke-width="1.51"/><path d="M2287,1009L1999,972L2036,1174Z" fill="#0f7032" stroke="#0f7032" stroke-width="1.51"/><path d="M-336,629L-245,723L-32,658Z" fill="#a6d7a8" stroke="#a6d7a8" stroke-width="1.51"/><path d="M-336,629L-32,658L-133,384Z" fill="#b0ddad" stroke="#b0ddad" stroke-width="1.51"/><path d="M2279,1122L2287,1009L2036,1174Z" fill="#0a672d" stroke="#0a672d" stroke-width="1.51"/><path d="M1366,-380L164,-277L560,-236Z" fill="#c4e7bf" stroke="#c4e7bf" stroke-width="1.51"/><path d="M415,-223L164,-277L253,-47Z" fill="#d8f0d1" stroke="#d8f0d1" stroke-width="1.51"/><path d="M74,-31L-145,9L-40,45Z" fill="#daf1d4" stroke="#daf1d4" stroke-width="1.51"/><path d="M2295,496L2288,306L1936,247Z" fill="#529258" stroke="#529258" stroke-width="1.51"/><path d="M2169,1412L2279,1122L2036,1174Z" fill="#006127" stroke="#006127" stroke-width="1.51"/><path d="M-318,1089L-67,1103L-64,1051Z" fill="#89bc8e" stroke="#89bc8e" stroke-width="1.51"/><path d="M-67,1103L-144,1278L66,1214Z" fill="#81b284" stroke="#81b284" stroke-width="1.51"/><path d="M177,1376L-322,1305L314,1426Z" fill="#75a177" stroke="#75a177" stroke-width="1.51"/><path d="M2249,-263L1915,-319L1982,-141Z" fill="#7fab83" stroke="#7fab83" stroke-width="1.51"/><path d="M1982,-141L1915,-319L1706,-41Z" fill="#83b586" stroke="#83b586" stroke-width="1.51"/><path d="M2273,-52L1982,-141L2157,107Z" fill="#71a174" stroke="#71a174" stroke-width="1.51"/><path d="M1971,1386L2169,1412L2036,1174Z" fill="#006027" stroke="#006027" stroke-width="1.51"/><path d="M1875,1445L2169,1412L1971,1386Z" fill="#005b24" stroke="#005b24" stroke-width="1.51"/><path d="M-245,723L-299,900L-64,1051Z" fill="#95ca9b" stroke="#95ca9b" stroke-width="1.51"/><path d="M-336,629L-299,900L-245,723Z" fill="#a1d4a5" stroke="#a1d4a5" stroke-width="1.51"/><path d="M2331,1096L2367,934L2287,1009Z" fill="#10662f" stroke="#10662f" stroke-width="1.51"/><path d="M2287,1009L2367,934L2125,681Z" fill="#1a7237" stroke="#1a7237" stroke-width="1.51"/><path d="M2295,496L2442,421L2288,306Z" fill="#498750" stroke="#498750" stroke-width="1.51"/><path d="M2331,1096L2287,1009L2279,1122Z" fill="#0b632c" stroke="#0b632c" stroke-width="1.51"/><path d="M2330,1467L2331,1096L2279,1122Z" fill="#015924" stroke="#015924" stroke-width="1.51"/><path d="M-40,45L-145,9L-133,384Z" fill="#d2edcc" stroke="#d2edcc" stroke-width="1.51"/><path d="M-58,-276L-145,9L74,-31Z" fill="#e1f4db" stroke="#e1f4db" stroke-width="1.51"/><path d="M-362,248L-336,629L-133,384Z" fill="#bfe5bb" stroke="#bfe5bb" stroke-width="1.51"/><path d="M2442,713L2414,567L2125,681Z" fill="#307c41" stroke="#307c41" stroke-width="1.51"/><path d="M2367,934L2442,713L2125,681Z" fill="#21753b" stroke="#21753b" stroke-width="1.51"/><path d="M2330,1467L2442,713L2367,934Z" fill="#0e652d" stroke="#0e652d" stroke-width="1.51"/><path d="M-299,900L-318,1089L-64,1051Z" fill="#8fc194" stroke="#8fc194" stroke-width="1.51"/><path d="M-336,629L-318,1089L-299,900Z" fill="#99cca0" stroke="#99cca0" stroke-width="1.51"/><path d="M2414,567L2442,421L2295,496Z" fill="#418349" stroke="#418349" stroke-width="1.51"/><path d="M2288,306L2357,132L2157,107Z" fill="#5f9262" stroke="#5f9262" stroke-width="1.51"/><path d="M2442,713L2442,421L2414,567Z" fill="#398045" stroke="#398045" stroke-width="1.51"/><path d="M2442,421L2357,132L2288,306Z" fill="#548c59" stroke="#548c59" stroke-width="1.51"/><path d="M2357,132L2273,-52L2157,107Z" fill="#68966a" stroke="#68966a" stroke-width="1.51"/><path d="M-280,43L-362,248L-133,384Z" fill="#d0ecca" stroke="#d0ecca" stroke-width="1.51"/><path d="M164,-277L-58,-276L74,-31Z" fill="#e2f4dc" stroke="#e2f4dc" stroke-width="1.51"/><path d="M-268,-361L-58,-276L164,-277Z" fill="#ebf7e6" stroke="#ebf7e6" stroke-width="1.51"/><path d="M-336,629L-322,1305L-318,1089Z" fill="#92c398" stroke="#92c398" stroke-width="1.51"/><path d="M-280,43L-133,384L-145,9Z" fill="#d4eecf" stroke="#d4eecf" stroke-width="1.51"/><path d="M-295,-92L-280,43L-145,9Z" fill="#e1f4dc" stroke="#e1f4dc" stroke-width="1.51"/><path d="M-318,1089L-322,1305L-144,1278Z" fill="#85b389" stroke="#85b389" stroke-width="1.51"/><path d="M-144,1278L-322,1305L177,1376Z" fill="#7da87f" stroke="#7da87f" stroke-width="1.51"/><path d="M-362,248L-322,1305L-336,629Z" fill="#a5d6a8" stroke="#a5d6a8" stroke-width="1.51"/><path d="M2169,1412L2330,1467L2279,1122Z" fill="#005221" stroke="#005221" stroke-width="1.51"/><path d="M2331,1096L2330,1467L2367,934Z" fill="#055c27" stroke="#055c27" stroke-width="1.51"/><path d="M1875,1445L2330,1467L2169,1412Z" fill="#005120" stroke="#005120" stroke-width="1.51"/><path d="M1654,1453L2330,1467L1875,1445Z" fill="#015a24" stroke="#015a24" stroke-width="1.51"/><path d="M314,1426L2330,1467L1654,1453Z" fill="#1b7237" stroke="#1b7237" stroke-width="1.51"/><path d="M2273,-52L2249,-263L1982,-141Z" fill="#78a27b" stroke="#78a27b" stroke-width="1.51"/><path d="M1915,-319L2437,-286L1727,-352Z" fill="#83ae86" stroke="#83ae86" stroke-width="1.51"/><path d="M2465,-144L2249,-263L2273,-52Z" fill="#749976" stroke="#749976" stroke-width="1.51"/><path d="M2465,-144L2273,-52L2357,132Z" fill="#6c956e" stroke="#6c956e" stroke-width="1.51"/><path d="M-58,-276L-295,-92L-145,9Z" fill="#e6f5e1" stroke="#e6f5e1" stroke-width="1.51"/><path d="M-280,43L-295,-92L-362,248Z" fill="#def2d8" stroke="#def2d8" stroke-width="1.51"/><path d="M2442,713L2465,-144L2442,421Z" fill="#518a55" stroke="#518a55" stroke-width="1.51"/><path d="M2442,421L2465,-144L2357,132Z" fill="#619164" stroke="#619164" stroke-width="1.51"/><path d="M-58,-276L-268,-361L-295,-92Z" fill="#edf8e9" stroke="#edf8e9" stroke-width="1.51"/><path d="M-295,-92L-268,-361L-362,248Z" fill="#e6f5e2" stroke="#e6f5e2" stroke-width="1.51"/><path d="M1366,-380L-268,-361L164,-277Z" fill="#d6efd0" stroke="#d6efd0" stroke-width="1.51"/><path d="M2465,-144L2437,-286L2249,-263Z" fill="#779a79" stroke="#779a79" stroke-width="1.51"/><path d="M2249,-263L2437,-286L1915,-319Z" fill="#7ca280" stroke="#7ca280" stroke-width="1.51"/></svg>